<svg width="36" height="34" viewBox="0 0 36 34" fill="none" xmlns="http://www.w3.org/2000/svg">
<path d="M2.05892 23.009C1.62662 15.4736 11.0858 7.98868 23.1901 6.28235C27.9084 5.62034 32.3329 5.93291 36 7.01169C32.4652 5.73334 28.3571 5 23.9752 5C10.7371 5 0 11.6851 0 19.929C0 23.3424 1.83995 26.4874 4.93319 29C3.22401 27.3313 2.19173 25.3012 2.05892 23.009Z" fill="#C0FF72"/>
<path d="M13.3848 8.51562H16.9521L16.9648 21.3252C16.9564 22.2054 16.7871 23.0094 16.457 23.7373C16.1354 24.4567 15.6911 25.0788 15.124 25.6035C14.557 26.1283 13.8883 26.5345 13.1182 26.8223C12.3564 27.11 11.5355 27.2539 10.6553 27.2539C9.72428 27.2539 8.87793 27.1354 8.11621 26.8984C7.35449 26.6615 6.7028 26.306 6.16113 25.832C5.611 25.3665 5.18359 24.7783 4.87891 24.0674C4.57422 23.3564 4.41764 22.5228 4.40918 21.5664H7.98926C7.98926 22.0065 8.03158 22.3916 8.11621 22.7217C8.20085 23.0518 8.3278 23.3311 8.49707 23.5596C8.71712 23.8389 9.00488 24.0462 9.36035 24.1816C9.71582 24.3171 10.1475 24.3848 10.6553 24.3848C11.0615 24.3848 11.4339 24.3086 11.7725 24.1562C12.111 23.9954 12.3988 23.7796 12.6357 23.5088C12.8727 23.238 13.0547 22.9163 13.1816 22.5439C13.3171 22.1631 13.3848 21.7568 13.3848 21.3252V8.51562Z" fill="#1F1F1F"/>
<path d="M21.4844 27L18.9453 8.51562H22.208L23.4395 18.8496L23.5283 19.5732L23.6426 18.8115L25.1025 8.51562H27.6543L29.2031 18.8877L29.3174 19.6494L29.4062 18.875L30.6631 8.51562H33.9385L31.374 27H28.1494L26.5371 17.0215L26.3975 16.082L26.2578 17.0215L24.709 27H21.4844Z" fill="#C0FF72"/>
</svg>
