<svg width="215" height="60" viewBox="0 0 215 60" fill="none" xmlns="http://www.w3.org/2000/svg">
<mask id="mask0_11_502" style="mask-type:luminance" maskUnits="userSpaceOnUse" x="0" y="0" width="162" height="49">
<path d="M0 0H161.72V48.3328H0V0Z" fill="white"/>
</mask>
<g mask="url(#mask0_11_502)">
<path d="M9.21865 36.2206C7.28308 21.0731 49.6361 6.02707 103.832 2.59705C124.958 1.26629 144.768 1.89461 161.187 4.06315C145.361 1.49345 126.967 0.0193024 107.347 0.0193024C48.0747 0.0193024 0 13.4574 0 30.0291C0 36.8908 8.23823 43.2127 22.088 48.2635C14.4353 44.9092 9.81333 40.8283 9.21865 36.2206Z" fill="#C0FF72"/>
</g>
<mask id="mask1_11_502" style="mask-type:luminance" maskUnits="userSpaceOnUse" x="52" y="11" width="163" height="50">
<path d="M52.9791 11.6256H214.69V60.0099H52.9791V11.6256Z" fill="white"/>
</mask>
<g mask="url(#mask1_11_502)">
<path d="M192.602 11.7931C200.255 15.1539 204.877 19.2331 205.462 23.836C207.407 38.9884 165.052 54.044 110.858 57.4644C89.7321 58.7951 69.9218 58.162 53.5027 55.9999C69.3087 58.568 87.7483 60.0421 107.347 60.0421C166.62 60.0421 214.697 46.604 214.697 30.0291C214.697 23.1707 206.452 16.8487 192.602 11.7931Z" fill="#C0FF72"/>
</g>
<path d="M53.8211 11.3314V25.9085C53.8211 28.0142 53.0703 29.7349 51.571 31.0705C49.826 32.6091 47.2016 33.3776 43.7001 33.3776C40.5408 33.3776 38.0243 32.7428 36.1507 31.47C34.4907 30.3068 33.5539 28.9116 33.3404 27.2876H36.9957C37.2092 28.2543 37.8498 29.0776 38.9152 29.7558C40.1642 30.5678 41.8197 30.9738 43.8838 30.9738C46.3865 30.9738 48.1683 30.3938 49.229 29.2338C49.95 28.4218 50.3128 27.2812 50.3128 25.8119V11.3314H53.8211Z" fill="#1F1F1F"/>
<path d="M69.1508 11.0736C73.7797 11.0736 77.5774 12.1594 80.5485 14.328C83.4553 16.4337 84.9109 19.0646 84.9109 22.2223C84.9109 25.3801 83.4553 28.0126 80.5485 30.1167C77.5774 32.2916 73.7797 33.3775 69.1508 33.3775C64.5266 33.3775 60.7312 32.2916 57.7624 30.1167C54.8533 28.0126 53.3999 25.3801 53.3999 22.2223C53.3999 19.0646 54.8533 16.4337 57.7624 14.328C60.7312 12.1594 64.5266 11.0736 69.1508 11.0736ZM69.1508 30.9738C72.8429 30.9738 75.8278 30.1296 78.1055 28.4411C80.2959 26.8172 81.3934 24.7453 81.3934 22.2223C81.3934 19.701 80.2959 17.6275 78.1055 16.0035C75.8278 14.3151 72.8429 13.4709 69.1508 13.4709C65.4634 13.4709 62.4785 14.3151 60.1962 16.0035C58.0104 17.6275 56.9175 19.701 56.9175 22.2223C56.9175 24.7453 58.0104 26.8172 60.1962 28.4411C62.4785 30.1296 65.4634 30.9738 69.1508 30.9738Z" fill="#1F1F1F"/>
<path d="M106.801 13.7029H95.9728V33.1133H92.4552V13.7029H81.6179V11.3314H106.801V13.7029Z" fill="#1F1F1F"/>
<path d="M132.582 33.1133H128.688L124.895 26.7979H109.52L105.718 33.1133H101.824L115.003 11.3314H119.412L132.582 33.1133ZM123.535 24.5294L117.207 13.9027L110.88 24.5294H123.535Z" fill="#1F1F1F"/>
<path d="M157.897 33.1133H153.92L144.258 11.3314H147.959L155.931 29.6269L164.28 11.3314H168.312L176.651 29.6269L184.623 11.3314H188.333L178.671 33.1133H174.685L166.291 14.8242L157.897 33.1133Z" fill="#1F1F1F"/>
<path d="M83.4012 55.6328C82.6343 55.6328 82.0351 55.4716 81.6011 55.1494C81.1649 54.824 80.949 54.3761 80.949 53.809V49.5493H82.4093V53.809C82.4093 54.041 82.492 54.2456 82.6573 54.4212C82.8226 54.5936 83.0798 54.679 83.4288 54.679C83.7158 54.679 83.9477 54.6049 84.1268 54.4534C84.3036 54.2988 84.3931 54.1054 84.3931 53.8734V49.1368C84.3931 48.6438 84.2416 48.2781 83.9431 48.0413C83.6423 47.8012 83.2841 47.5741 82.8685 47.3582C82.3542 47.0972 81.9157 46.8024 81.5552 46.4753C81.1924 46.1499 81.0133 45.6472 81.0133 44.9673V40.772C81.0133 40.2662 81.2337 39.8634 81.6746 39.5669C82.12 39.2705 82.6963 39.1223 83.4012 39.1223C84.1842 39.1223 84.788 39.2818 85.2105 39.5992C85.633 39.9182 85.8442 40.3451 85.8442 40.8816V44.7482H84.4207V40.8816C84.4207 40.6335 84.338 40.4337 84.1727 40.2823C84.0074 40.1324 83.7594 40.0567 83.4288 40.0567C83.1395 40.0567 82.9076 40.126 82.7308 40.2629C82.5586 40.4015 82.4736 40.5707 82.4736 40.772V44.9415C82.4736 45.4233 82.6206 45.7761 82.9145 45.9984C83.2129 46.2224 83.5413 46.435 83.8972 46.6364C84.4895 46.9119 84.9625 47.2277 85.3115 47.5837C85.6651 47.9414 85.8442 48.4376 85.8442 49.0724V53.8734C85.8442 54.4116 85.6192 54.8385 85.1738 55.1559C84.7329 55.4733 84.1405 55.6328 83.4012 55.6328Z" fill="#1F1F1F"/>
<path d="M90.1785 55.4394V39.2962H94.1185V40.2307H91.6663V46.6815H93.7419V47.6159H91.6663V54.4856H94.1185V55.4394H90.1785Z" fill="#1F1F1F"/>
<path d="M98.1688 55.4394V39.2962H100.621C102.231 39.2962 103.036 39.8956 103.036 41.0942V46.4431C103.036 46.8039 102.926 47.1165 102.706 47.3775C102.49 47.6401 102.127 47.8141 101.613 47.8995V47.9188C102.146 48.0219 102.495 48.2008 102.66 48.4537C102.825 48.7082 102.919 49.0724 102.945 49.5492L102.972 53.2676C102.972 53.7574 102.991 54.1763 103.027 54.5243C103.069 54.8723 103.133 55.1784 103.22 55.4394H101.76C101.698 55.2074 101.64 54.9077 101.585 54.5372C101.535 54.1682 101.512 53.7365 101.512 53.2419L101.457 49.3559C101.457 48.7759 101.103 48.4859 100.401 48.4859H99.6566V55.4394H98.1688ZM99.6566 47.5322H100.492C100.823 47.5322 101.085 47.4597 101.282 47.313C101.477 47.168 101.576 46.9505 101.576 46.6622V41.0942C101.576 40.5191 101.246 40.2307 100.584 40.2307H99.6566V47.5322Z" fill="#1F1F1F"/>
<path d="M106.816 39.2962H108.267L109.534 51.1152L109.691 53.3321H109.755L109.911 51.1152L111.178 39.2962H112.602L110.71 55.4394H108.699L106.816 39.2962Z" fill="#1F1F1F"/>
<path d="M116.627 55.4394V39.2962H118.115V55.4394H116.627Z" fill="#1F1F1F"/>
<path d="M124.902 57.9398C124.38 57.9398 123.965 57.84 123.653 57.6434C123.345 57.4501 123.193 57.1697 123.193 56.8056H124.093C124.112 56.9941 124.194 57.1311 124.341 57.2181C124.488 57.3083 124.663 57.3534 124.865 57.3534C125.324 57.3534 125.554 57.1859 125.554 56.8507C125.554 56.4899 125.253 56.3449 124.654 56.419L124.185 56.2192L124.562 55.6134C123.239 55.4539 122.578 54.7885 122.578 53.6157V41.12C122.578 40.4804 122.782 39.989 123.193 39.6443C123.609 39.2963 124.217 39.1223 125.021 39.1223C125.866 39.1223 126.49 39.3011 126.895 39.6572C127.299 40.01 127.501 40.4756 127.501 41.0556V45.354H126.04V41.0556C126.04 40.7511 125.958 40.5078 125.792 40.3274C125.632 40.1469 125.375 40.0567 125.021 40.0567C124.732 40.0567 124.493 40.1405 124.305 40.308C124.121 40.4724 124.029 40.7205 124.029 41.0556V53.6801C124.029 54.012 124.121 54.2601 124.305 54.4277C124.493 54.5952 124.732 54.679 125.021 54.679C125.701 54.679 126.04 54.3471 126.04 53.6801V48.8984H127.501V53.6801C127.501 54.2005 127.322 54.6435 126.968 55.0077C126.619 55.3685 126.082 55.5699 125.361 55.6134L125.15 55.9808C125.48 55.955 125.788 56.013 126.077 56.1548C126.364 56.2997 126.509 56.5414 126.509 56.8765C126.509 57.1633 126.373 57.413 126.105 57.6241C125.834 57.8335 125.434 57.9398 124.902 57.9398Z" fill="#1F1F1F"/>
<path d="M134.126 55.6328C133.341 55.6328 132.74 55.4523 132.317 55.0914C131.895 54.7305 131.683 54.2392 131.683 53.6157V41.12C131.683 40.4804 131.895 39.989 132.317 39.6443C132.74 39.2963 133.341 39.1223 134.126 39.1223C134.935 39.1223 135.552 39.2963 135.982 39.6443C136.416 39.989 136.634 40.4804 136.634 41.12V53.6157C136.634 54.2521 136.416 54.7483 135.982 55.1043C135.552 55.4555 134.935 55.6328 134.126 55.6328ZM133.135 53.6801C133.135 54.3471 133.465 54.679 134.126 54.679C134.829 54.679 135.183 54.3471 135.183 53.6801V41.0556C135.183 40.3902 134.829 40.0567 134.126 40.0567C133.465 40.0567 133.135 40.3902 133.135 41.0556V53.6801Z" fill="#1F1F1F"/>
<path d="M143.267 55.6328C142.5 55.6328 141.901 55.4716 141.467 55.1494C141.031 54.824 140.815 54.3761 140.815 53.809V49.5493H142.275V53.809C142.275 54.041 142.358 54.2456 142.523 54.4212C142.688 54.5936 142.946 54.679 143.295 54.679C143.582 54.679 143.813 54.6049 143.993 54.4534C144.169 54.2988 144.259 54.1054 144.259 53.8734V49.1368C144.259 48.6438 144.107 48.2781 143.809 48.0413C143.508 47.8012 143.15 47.5741 142.734 47.3582C142.22 47.0972 141.781 46.8024 141.421 46.4753C141.058 46.1499 140.879 45.6472 140.879 44.9673V40.772C140.879 40.2662 141.1 39.8634 141.54 39.5669C141.986 39.2705 142.562 39.1223 143.267 39.1223C144.05 39.1223 144.654 39.2818 145.076 39.5992C145.499 39.9182 145.71 40.3451 145.71 40.8816V44.7482H144.286V40.8816C144.286 40.6335 144.204 40.4337 144.038 40.2823C143.873 40.1324 143.625 40.0567 143.295 40.0567C143.005 40.0567 142.773 40.126 142.597 40.2629C142.424 40.4015 142.339 40.5707 142.339 40.772V44.9415C142.339 45.4233 142.486 45.7761 142.78 45.9984C143.079 46.2224 143.407 46.435 143.763 46.6364C144.355 46.9119 144.828 47.2277 145.177 47.5837C145.531 47.9414 145.71 48.4376 145.71 49.0724V53.8734C145.71 54.4116 145.485 54.8385 145.04 55.1559C144.599 55.4733 144.006 55.6328 143.267 55.6328Z" fill="#1F1F1F"/>
</svg>
